<svg width="42" height="26" viewBox="0 0 42 26" fill="none" xmlns="http://www.w3.org/2000/svg">
<path d="M21.2878 5.96094L20.7685 5.10631L21.2878 4.79084L21.807 5.10631L21.2878 5.96094ZM22.2878 15.3258C22.2878 15.8781 21.8401 16.3258 21.2878 16.3258C20.7355 16.3258 20.2878 15.8781 20.2878 15.3258L22.2878 15.3258ZM12.2054 10.309L20.7685 5.10631L21.807 6.81556L13.2439 12.0183L12.2054 10.309ZM21.807 5.10631L30.3702 10.309L29.3317 12.0183L20.7685 6.81556L21.807 5.10631ZM22.2878 5.96094L22.2878 15.3258L20.2878 15.3258L20.2878 5.96094L22.2878 5.96094Z" fill="#FCFCFD"/>
<path d="M9.2998 17.4062L9.2998 18.4468C9.2998 19.5961 10.8333 20.5279 12.7251 20.5279L29.8514 20.5279C31.7431 20.5279 33.2766 19.5961 33.2766 18.4468V17.4063" stroke="#FCFCFD" stroke-width="2"/>
</svg>
