<svg width="18" height="17" viewBox="0 0 18 17" fill="none" xmlns="http://www.w3.org/2000/svg">
<path d="M12 4.24935V3.68268C12 2.88927 12 2.49257 11.8365 2.18953C11.6927 1.92297 11.4632 1.70624 11.181 1.57042C10.8601 1.41602 10.4401 1.41602 9.6 1.41602H8.4C7.55992 1.41602 7.13988 1.41602 6.81901 1.57042C6.53677 1.70624 6.3073 1.92297 6.16349 2.18953C6 2.49257 6 2.88927 6 3.68268V4.24935M7.5 8.14518V11.6868M10.5 8.14518V11.6868M2.25 4.24935H15.75M14.25 4.24935V12.1827C14.25 13.3728 14.25 13.9679 14.0048 14.4224C13.789 14.8223 13.4448 15.1473 13.0215 15.3511C12.5402 15.5827 11.9101 15.5827 10.65 15.5827H7.35C6.08988 15.5827 5.45982 15.5827 4.97852 15.3511C4.55516 15.1473 4.21095 14.8223 3.99524 14.4224C3.75 13.9679 3.75 13.3728 3.75 12.1827V4.24935" stroke="#7F56D9" stroke-width="1.66667" stroke-linecap="round" stroke-linejoin="round"/>
</svg>
